<?xml version="1.0" encoding="UTF-8" standalone="no"?><svg xmlns="http://www.w3.org/2000/svg" xmlns:xlink="http://www.w3.org/1999/xlink" contentScriptType="application/ecmascript" contentStyleType="text/css" height="334px" preserveAspectRatio="none" style="width:214px;height:334px;" version="1.1" viewBox="0 0 214 334" width="214px" zoomAndPan="magnify"><defs><filter height="300%" id="f1pcc4pv0d9k1y" width="300%" x="-1" y="-1"><feGaussianBlur result="blurOut" stdDeviation="2.0"/><feColorMatrix in="blurOut" result="blurOut2" type="matrix" values="0 0 0 0 0 0 0 0 0 0 0 0 0 0 0 0 0 0 .4 0"/><feOffset dx="4.0" dy="4.0" in="blurOut2" result="blurOut3"/><feBlend in="SourceGraphic" in2="blurOut3" mode="normal"/></filter></defs><g><ellipse cx="93" cy="20" fill="#000000" filter="url(#f1pcc4pv0d9k1y)" rx="10" ry="10" style="stroke: none; stroke-width: 1.0;"/><rect fill="#FEFECE" filter="url(#f1pcc4pv0d9k1y)" height="34.1328" rx="12.5" ry="12.5" style="stroke: #A80036; stroke-width: 1.5;" width="56" x="65" y="146.9551"/><text fill="#000000" font-family="sans-serif" font-size="12" lengthAdjust="spacingAndGlyphs" textLength="36" x="75" y="168.5566">Great!</text><polygon fill="#FEFECE" filter="url(#f1pcc4pv0d9k1y)" points="32,98.4775,154,98.4775,166,110.4775,154,122.4775,32,122.4775,20,110.4775,32,98.4775" style="stroke: #A80036; stroke-width: 1.5;"/><text fill="#000000" font-family="sans-serif" font-size="11" lengthAdjust="spacingAndGlyphs" textLength="18" x="97" y="133.1123">yes</text><text fill="#000000" font-family="sans-serif" font-size="11" lengthAdjust="spacingAndGlyphs" textLength="122" x="32" y="114.6348">Can anything be done?</text><text fill="#000000" font-family="sans-serif" font-size="11" lengthAdjust="spacingAndGlyphs" textLength="14" x="166" y="108.1572">no</text><polygon fill="#FEFECE" filter="url(#f1pcc4pv0d9k1y)" points="93,201.0879,105,213.0879,93,225.0879,81,213.0879,93,201.0879" style="stroke: #A80036; stroke-width: 1.5;"/><polygon fill="#FEFECE" filter="url(#f1pcc4pv0d9k1y)" points="49,50,137,50,149,62,137,74,49,74,37,62,49,50" style="stroke: #A80036; stroke-width: 1.5;"/><text fill="#000000" font-family="sans-serif" font-size="11" lengthAdjust="spacingAndGlyphs" textLength="18" x="97" y="84.6348">yes</text><text fill="#000000" font-family="sans-serif" font-size="11" lengthAdjust="spacingAndGlyphs" textLength="88" x="49" y="66.1572">Have a problem?</text><text fill="#000000" font-family="sans-serif" font-size="11" lengthAdjust="spacingAndGlyphs" textLength="45" x="149" y="59.6797">not sure</text><polygon fill="#FEFECE" filter="url(#f1pcc4pv0d9k1y)" points="93,245.0879,105,257.0879,93,269.0879,81,257.0879,93,245.0879" style="stroke: #A80036; stroke-width: 1.5;"/><rect fill="#FEFECE" filter="url(#f1pcc4pv0d9k1y)" height="34.1328" rx="12.5" ry="12.5" style="stroke: #A80036; stroke-width: 1.5;" width="86" x="50" y="289.0879"/><text fill="#000000" font-family="sans-serif" font-size="12" lengthAdjust="spacingAndGlyphs" textLength="66" x="60" y="310.6895">Don't worry</text><line style="stroke: #A80036; stroke-width: 1.5;" x1="93" x2="93" y1="122.4775" y2="146.9551"/><polygon fill="#A80036" points="89,136.9551,93,146.9551,97,136.9551,93,140.9551" style="stroke: #A80036; stroke-width: 1.0;"/><line style="stroke: #A80036; stroke-width: 1.5;" x1="166" x2="178" y1="110.4775" y2="110.4775"/><polygon fill="#A80036" points="174,154.0215,178,164.0215,182,154.0215,178,158.0215" style="stroke: #A80036; stroke-width: 1.5;"/><line style="stroke: #A80036; stroke-width: 1.5;" x1="178" x2="178" y1="110.4775" y2="213.0879"/><line style="stroke: #A80036; stroke-width: 1.5;" x1="178" x2="105" y1="213.0879" y2="213.0879"/><polygon fill="#A80036" points="115,209.0879,105,213.0879,115,217.0879,111,213.0879" style="stroke: #A80036; stroke-width: 1.0;"/><line style="stroke: #A80036; stroke-width: 1.5;" x1="93" x2="93" y1="181.0879" y2="201.0879"/><polygon fill="#A80036" points="89,191.0879,93,201.0879,97,191.0879,93,195.0879" style="stroke: #A80036; stroke-width: 1.0;"/><line style="stroke: #A80036; stroke-width: 1.5;" x1="93" x2="93" y1="74" y2="98.4775"/><polygon fill="#A80036" points="89,88.4775,93,98.4775,97,88.4775,93,92.4775" style="stroke: #A80036; stroke-width: 1.0;"/><line style="stroke: #A80036; stroke-width: 1.5;" x1="149" x2="188" y1="62" y2="62"/><polygon fill="#A80036" points="184,154.0215,188,164.0215,192,154.0215,188,158.0215" style="stroke: #A80036; stroke-width: 1.5;"/><line style="stroke: #A80036; stroke-width: 1.5;" x1="188" x2="188" y1="62" y2="257.0879"/><line style="stroke: #A80036; stroke-width: 1.5;" x1="188" x2="105" y1="257.0879" y2="257.0879"/><polygon fill="#A80036" points="115,253.0879,105,257.0879,115,261.0879,111,257.0879" style="stroke: #A80036; stroke-width: 1.0;"/><line style="stroke: #A80036; stroke-width: 1.5;" x1="93" x2="93" y1="225.0879" y2="245.0879"/><polygon fill="#A80036" points="89,235.0879,93,245.0879,97,235.0879,93,239.0879" style="stroke: #A80036; stroke-width: 1.0;"/><line style="stroke: #A80036; stroke-width: 1.5;" x1="93" x2="93" y1="30" y2="50"/><polygon fill="#A80036" points="89,40,93,50,97,40,93,44" style="stroke: #A80036; stroke-width: 1.0;"/><line style="stroke: #A80036; stroke-width: 1.5;" x1="93" x2="93" y1="269.0879" y2="289.0879"/><polygon fill="#A80036" points="89,279.0879,93,289.0879,97,279.0879,93,283.0879" style="stroke: #A80036; stroke-width: 1.0;"/><!--
@startuml Problems?

start
if (Have a problem?) then (yes)
    if (Can anything be done?) then (yes)
        :Great!;
    else (no)
    endif
else (not sure)
endif

:Don't worry;

@enduml

PlantUML version 1.2018.03(Fri Apr 06 02:59:15 AEST 2018)
(GPL source distribution)
Java Runtime: Java(TM) SE Runtime Environment
JVM: Java HotSpot(TM) 64-Bit Server VM
Java Version: 10.0.1+10
Operating System: Mac OS X
OS Version: 10.13.6
Default Encoding: UTF-8
Language: en
Country: AU
--></g></svg>